# File created by Blade
# Date/Time:  Wed Jan 21 17:57:11 2015
# Frame Rate: 120.000 fps
#------------------------------------------------------
:FULLY-SPECIFIED
:DEGREES
477
root 19.810849 29.099893 -17.005115 -95.759598 2.269270 -179.780102
Spine 63.816014 3.309310 -0.960305
Head 188.634969 1.956941 185.714952
LeftShoulder 33.949228 -55.569764 4.926686
LeftArm 15.742121 7.016975 -0.743965
LeftForeArm 53.250069 -0.000000 76.775320
LeftHand -0.264238 -0.000000 38.239967
LeftHandThumb1 -26.253704 0.000000 33.147579
RightShoulder 23.557051 17.340490 -29.058976
RightArm -1.791745 39.530558 -2.956209
RightForeArm -71.070382 0.000000 88.786423
RightHand -4.348976 -0.000000 -26.161367
RightHandThumb1 -24.326973 -0.000000 -32.862282
LeftUpLeg -80.316184 33.579662 4.514029
LeftLeg -6.519178 -0.000000 0.000000
LeftFoot -15.063396 17.762016 -23.837392
LeftToeBase 33.326143 -0.000000 -0.000000
RightUpLeg -85.981286 -33.556290 0.595900
RightLeg -6.228830 -0.000000 0.000000
RightFoot -9.069777 -1.539681 32.304247
RightToeBase 30.659080 -0.000000 -0.000000
478
root 19.807996 29.097860 -16.995396 -95.525443 2.284729 -179.824188
Spine 63.914390 3.256498 -0.939796
Head 188.816402 1.904976 185.745447
LeftShoulder 33.843761 -55.791794 5.238739
LeftArm 15.121095 6.634640 -0.859179
LeftForeArm 53.297385 -0.000000 77.602823
LeftHand -0.372450 -0.000000 37.943776
LeftHandThumb1 -26.253704 0.000000 33.147579
RightShoulder 23.312433 17.526156 -29.168009
RightArm -2.091286 39.852938 -3.080621
RightForeArm -71.129497 -0.000000 89.381206
RightHand -4.450698 -0.000000 -25.879464
RightHandThumb1 -24.326973 -0.000000 -32.862282
LeftUpLeg -80.649833 33.577736 4.270866
LeftLeg -6.521744 -0.000000 0.000000
LeftFoot -15.027213 17.631414 -23.934491
LeftToeBase 33.395448 -0.000000 -0.000000
RightUpLeg -86.316856 -33.611036 0.804629
RightLeg -6.235228 -0.000000 0.000000
RightFoot -9.014841 -1.467624 32.406759
RightToeBase 30.608597 -0.000000 -0.000000
479
root 19.803982 29.093657 -16.987128 -95.307785 2.326137 -179.863355
Spine 64.025729 3.202097 -0.937490
Head 188.997126 1.850170 185.685522
LeftShoulder 33.746739 -56.087711 5.547141
LeftArm 14.458723 6.279632 -1.065946
LeftForeArm 53.476428 -0.000000 78.440741
LeftHand -0.586819 -0.000000 37.667664
LeftHandThumb1 -26.253704 0.000000 33.147579
RightShoulder 23.113647 17.764213 -29.264298
RightArm -2.415744 40.120972 -3.204336
RightForeArm -71.075061 0.000000 89.949501
RightHand -4.530617 -0.000000 -25.670790
RightHandThumb1 -24.326973 -0.000000 -32.862282
LeftUpLeg -80.901828 33.571142 4.088014
LeftLeg -6.548270 -0.000000 0.000000
LeftFoot -14.989279 17.558384 -23.998720
LeftToeBase 33.308601 -0.000000 -0.000000
RightUpLeg -86.640588 -33.658589 0.969671
RightLeg -6.221521 -0.000000 0.000000
RightFoot -8.990097 -1.391823 32.414379
RightToeBase 30.575464 -0.000000 -0.000000
480
root 19.803821 29.086012 -16.980354 -95.131149 2.344904 -179.900254
Spine 64.177711 3.155940 -0.910132
Head 189.193192 1.733143 185.600350
LeftShoulder 33.564693 -56.282832 5.970174
LeftArm 13.813002 5.813979 -1.265241
LeftForeArm 53.724338 0.000000 79.248243
LeftHand -0.952477 -0.000000 37.433957
LeftHandThumb1 -26.253704 0.000000 33.147579
RightShoulder 22.888262 18.042300 -29.440378
RightArm -2.720845 40.464149 -3.156179
RightForeArm -71.196746 -0.000000 90.543553
RightHand -4.499414 -0.000000 -25.374989
RightHandThumb1 -24.326973 -0.000000 -32.862282
LeftUpLeg -81.121555 33.567223 3.948053
LeftLeg -6.552154 -0.000000 0.000000
LeftFoot -14.974252 17.478666 -24.049154
LeftToeBase 33.299333 -0.000000 -0.000000
RightUpLeg -86.874056 -33.714482 1.061730
RightLeg -6.198797 -0.000000 0.000000
RightFoot -9.008333 -1.332959 32.421980
RightToeBase 30.523075 -0.000000 -0.000000
481
root 19.798369 29.078887 -16.972959 -94.937714 2.388605 -179.898978
Spine 64.300181 3.131022 -0.904331
Head 189.378205 1.600777 185.473192
LeftShoulder 33.409384 -56.553962 6.423635
LeftArm 12.990411 5.323181 -1.586613
LeftForeArm 53.901047 -0.000000 80.157284
LeftHand -0.871183 -0.000000 37.046508
LeftHandThumb1 -26.253704 0.000000 33.147579
RightShoulder 22.659272 18.449865 -29.634432
RightArm -2.999096 40.630035 -3.019632
RightForeArm -71.330872 -0.000000 91.157768
RightHand -4.552432 -0.000000 -25.067718
RightHandThumb1 -24.326973 -0.000000 -32.862282
LeftUpLeg -81.367396 33.599730 3.764782
LeftLeg -6.548939 -0.000000 0.000000
LeftFoot -14.982336 17.406782 -24.010038
LeftToeBase 33.361277 -0.000000 -0.000000
RightUpLeg -87.163052 -33.717920 1.173661
RightLeg -6.148069 -0.000000 0.000000
RightFoot -9.029903 -1.336764 32.457098
RightToeBase 30.446527 -0.000000 -0.000000
482
root 19.795494 29.071754 -16.966289 -94.757333 2.424299 -179.922346
Spine 64.406552 3.106033 -0.858885
Head 189.497681 1.531189 185.336973
LeftShoulder 33.200482 -56.649560 6.905964
LeftArm 12.355438 4.737892 -1.860097
LeftForeArm 54.120344 0.000000 80.875856
LeftHand -1.046740 -0.000000 36.944034
LeftHandThumb1 -26.253704 0.000000 33.147579
RightShoulder 22.432694 18.882263 -29.950555
RightArm -3.372611 40.780264 -2.721049
RightForeArm -71.569384 -0.000000 91.822416
RightHand -4.645762 -0.000000 -24.761030
RightHandThumb1 -24.326973 -0.000000 -32.862282
LeftUpLeg -81.612752 33.604980 3.565272
LeftLeg -6.553023 -0.000000 0.000000
LeftFoot -14.961205 17.364963 -24.002823
LeftToeBase 33.256515 -0.000000 -0.000000
RightUpLeg -87.475786 -33.745608 1.328564
RightLeg -6.070271 -0.000000 0.000000
RightFoot -9.067392 -1.253232 32.420721
RightToeBase 30.438004 -0.000000 -0.000000
483
root 19.794423 29.065904 -16.957996 -94.580075 2.444543 -179.947751
Spine 64.514799 3.058686 -0.806840
Head 189.685922 1.560537 185.207634
LeftShoulder 33.141272 -56.889957 7.140103
LeftArm 11.775531 4.347606 -2.041058
LeftForeArm 54.281275 -0.000000 81.545511
LeftHand -1.193557 -0.000000 36.737949
LeftHandThumb1 -26.253704 0.000000 33.147579
RightShoulder 22.189146 19.271946 -30.249768
RightArm -3.675293 40.935596 -2.495924
RightForeArm -71.685208 0.000000 92.406927
RightHand -4.678939 -0.000000 -24.508866
RightHandThumb1 -24.326973 -0.000000 -32.862282
LeftUpLeg -81.739091 33.592381 3.519606
LeftLeg -6.633217 -0.000000 0.000000
LeftFoot -14.866475 17.514084 -24.054061
LeftToeBase 32.966504 -0.000000 -0.000000
RightUpLeg -87.714234 -33.778687 1.420954
RightLeg -6.045771 -0.000000 0.000000
RightFoot -9.090617 -1.235114 32.403594
RightToeBase 30.362886 -0.000000 -0.000000
484
root 19.791415 29.057413 -16.952955 -94.430407 2.473385 -179.932441
Spine 64.649555 3.043044 -0.756491
Head 189.870915 1.455718 185.036545
LeftShoulder 33.047317 -57.109450 7.305024
LeftArm 11.344213 3.969129 -2.144980
LeftForeArm 54.420919 0.000000 82.140894
LeftHand -1.314145 -0.000000 36.490636
LeftHandThumb1 -26.253704 0.000000 33.147579
RightShoulder 22.008405 19.535127 -30.513610
RightArm -4.061864 41.160656 -2.475653
RightForeArm -71.713554 0.000000 92.953339
RightHand -4.771222 -0.000000 -24.348309
RightHandThumb1 -24.326973 -0.000000 -32.862282
LeftUpLeg -82.059907 33.659212 3.197338
LeftLeg -6.569020 -0.000000 0.000000
LeftFoot -14.796028 17.487999 -24.018358
LeftToeBase 32.883365 -0.000000 -0.000000
RightUpLeg -87.926572 -33.775899 1.534339
RightLeg -6.043087 -0.000000 0.000000
RightFoot -9.044440 -1.251110 32.503884
RightToeBase 30.156849 -0.000000 -0.000000
485
root 19.791013 29.051016 -16.946585 -94.295215 2.473808 -179.920315
Spine 64.761688 3.039673 -0.698472
Head 189.984601 1.165572 184.837834
LeftShoulder 32.974846 -57.299267 7.465325
LeftArm 10.942693 3.563750 -2.251298
LeftForeArm 54.528932 -0.000000 82.658334
LeftHand -1.242221 -0.000000 36.286237
LeftHandThumb1 -26.253704 0.000000 33.147579
RightShoulder 21.857774 19.874015 -30.708687
RightArm -4.388096 41.281994 -2.400179
RightForeArm -71.745906 0.000000 93.389015
RightHand -4.825763 -0.000000 -24.316970
RightHandThumb1 -24.326973 -0.000000 -32.862282
LeftUpLeg -82.300947 33.711290 2.984235
LeftLeg -6.557632 -0.000000 0.000000
LeftFoot -14.727547 17.483021 -24.098114
LeftToeBase 32.879223 -0.000000 -0.000000
RightUpLeg -88.134576 -33.774803 1.706824
RightLeg -6.059601 -0.000000 0.000000
RightFoot -8.981318 -1.279632 32.646507
RightToeBase 30.031511 -0.000000 -0.000000
486
root 19.791629 29.044823 -16.942215 -94.144366 2.475145 -179.903979
Spine 64.865460 3.013873 -0.672072
Head 190.125418 0.879434 184.620559
LeftShoulder 32.868837 -57.529721 7.647634
LeftArm 10.513020 3.241157 -2.370750
LeftForeArm 54.564067 -0.000000 83.208334
LeftHand -1.269527 0.000000 36.245549
LeftHandThumb1 -26.253704 0.000000 33.147579
RightShoulder 21.741167 20.113394 -30.893565
RightArm -4.728146 41.466679 -2.489192
RightForeArm -71.763803 -0.000000 93.771857
RightHand -4.845873 -0.000000 -24.316003
RightHandThumb1 -24.326973 -0.000000 -32.862282
LeftUpLeg -82.534067 33.769694 2.779101
LeftLeg -6.570010 -0.000000 0.000000
LeftFoot -14.687209 17.304617 -24.178920
LeftToeBase 32.884041 -0.000000 -0.000000
RightUpLeg -88.357519 -33.764933 1.901887
RightLeg -6.089734 -0.000000 0.000000
RightFoot -8.918138 -1.223594 32.684751
RightToeBase 30.049201 -0.000000 -0.000000
